<svg xmlns="http://www.w3.org/2000/svg" version="1.1" xmlns:xlink="http://www.w3.org/1999/xlink" xmlns:svgjs="http://svgjs.com/svgjs" width="300.000000pt" height="300.000000pt"><svg version="1.0" xmlns="http://www.w3.org/2000/svg" width="300.000000pt" height="300.000000pt" viewBox="0 0 300.000000 300.000000" preserveAspectRatio="xMidYMid meet">
<metadata>
Created by potrace 1.10, written by Peter Selinger 2001-2011
</metadata>
<g transform="translate(0.000000,300.000000) scale(0.100000,-0.100000)" fill="#000000" stroke="none">
<path d="M1490 2570 c-19 -36 -100 -79 -219 -117 l-115 -36 -45 18 c-40 16
-83 19 -319 23 l-272 4 2 -299 c3 -290 4 -298 23 -298 19 0 20 8 23 274 l2
274 218 -5 c119 -3 228 -10 241 -15 l25 -10 -30 -8 c-16 -4 -116 -6 -221 -6
l-193 2 0 -203 c0 -150 -3 -207 -12 -216 -9 -9 -15 -61 -19 -150 -6 -156 -14
-179 -87 -254 l-45 -47 29 -24 c16 -14 45 -51 64 -83 34 -56 35 -61 40 -188 3
-77 10 -140 18 -153 8 -15 12 -80 12 -217 l0 -196 178 0 c97 0 195 -5 217 -10
26 -6 42 -5 46 2 7 12 69 1 69 -12 0 -12 -14 -20 -52 -31 -24 -7 -29 -6 -20 3
21 21 13 26 -30 17 -24 -4 -134 -8 -245 -9 l-203 0 -2 278 c-3 269 -4 277 -23
277 -20 0 -20 -8 -23 -303 l-2 -302 257 0 c199 0 271 4 319 15 l61 16 109 -35
c109 -35 182 -74 218 -114 l19 -21 44 38 c54 48 101 71 220 105 89 26 93 27
144 12 42 -13 107 -16 316 -16 l263 0 0 306 0 305 -22 -3 -23 -3 -3 -277 -2
-278 -203 0 c-111 1 -221 5 -245 9 -35 7 -42 6 -38 -5 7 -18 -34 -19 -58 -1
-17 13 -16 14 13 26 22 10 35 10 44 3 8 -7 26 -8 52 -2 22 5 122 10 223 10
l182 0 0 205 c0 137 4 213 12 230 10 22 9 28 -3 36 -12 8 -12 10 0 18 10 7 16
40 20 113 7 118 22 157 85 221 l41 42 -42 38 c-63 58 -83 107 -84 208 0 46 -5
107 -11 134 -6 28 -13 147 -17 265 l-6 215 -185 1 c-102 1 -204 4 -227 8 -28
5 -43 4 -43 -3 0 -11 -39 -6 -53 8 -5 5 4 13 22 19 18 7 31 7 33 1 2 -6 29 -6
73 1 39 5 148 10 242 10 l173 0 2 -272 c3 -265 4 -273 23 -273 19 0 20 8 23
298 l2 298 -267 -3 c-234 -3 -274 -5 -318 -22 l-50 -19 -105 33 c-128 39 -164
57 -212 105 -36 36 -37 36 -48 15z m50 -111 c35 -27 455 -159 528 -166 l54 -6
129 -195 129 -194 0 -134 c0 -143 11 -185 63 -241 l20 -23 -21 -22 c-48 -52
-62 -104 -62 -241 0 -75 -5 -137 -11 -150 -6 -12 -63 -99 -126 -193 -113 -169
-115 -172 -156 -178 -23 -4 -62 -13 -87 -21 -350 -109 -432 -138 -460 -162
-28 -23 -32 -24 -48 -10 -9 8 -30 21 -47 30 -31 15 -451 147 -519 163 -37 8
-46 19 -163 191 l-123 183 0 118 c0 135 -14 194 -59 258 -27 37 -29 43 -15 55
8 7 27 33 42 58 25 43 27 55 31 190 l3 145 125 187 125 187 46 4 c69 7 489
138 526 164 39 28 41 28 76 3z m-443 -60 c27 -10 27 -11 9 -25 -29 -21 -46
-17 -46 11 0 29 -1 29 37 14z m-270 -93 c-2 -6 -21 -13 -43 -16 -21 -3 -45 -9
-52 -14 -9 -5 -20 -1 -33 13 -10 11 -19 21 -19 23 0 2 34 4 75 4 52 1 75 -2
72 -10z m1476 4 c30 0 30 0 12 -20 -12 -13 -25 -18 -34 -14 -9 4 -34 10 -55
13 -22 3 -41 12 -44 20 -4 11 5 13 43 8 26 -4 61 -7 78 -7z m-1566 -139 c-9
-11 -14 -8 -24 18 -20 47 -28 38 -25 -26 2 -41 -1 -64 -12 -78 -14 -18 -15
-11 -15 90 l0 110 44 -50 c35 -39 41 -53 32 -64z m1618 4 c0 -58 -3 -105 -7
-105 -13 0 -22 45 -19 94 2 31 -2 51 -9 56 -10 6 -8 14 6 34 11 14 21 26 24
26 3 0 5 -47 5 -105z m-1555 78 c0 -5 -7 -16 -15 -27 -13 -17 -15 -17 -29 -3
-20 20 -20 24 2 30 28 8 42 7 42 0z m1459 -2 c12 -8 12 -12 2 -25 -15 -18 -26
-14 -41 15 -9 15 -7 19 7 19 10 0 24 -4 32 -9z m32 -84 c-16 -16 -26 20 -10
40 13 15 14 14 17 -7 2 -12 -1 -27 -7 -33z m-1616 -136 c-21 -42 -35 -47 -35
-13 0 33 6 42 32 42 17 0 17 -2 3 -29z m1696 17 c0 -7 2 -23 5 -35 2 -13 0
-23 -5 -23 -10 0 -41 45 -41 60 0 15 40 12 41 -2z m8 -1071 c-2 -40 -5 -43
-26 -39 -13 2 -23 7 -23 11 0 10 39 71 45 71 3 0 5 -19 4 -43z m-1701 -10 l20
-34 -29 1 c-27 1 -29 4 -29 39 0 43 9 42 38 -6z m12 -135 c5 -65 3 -80 -12
-96 -17 -19 -18 -16 -18 89 0 87 3 107 13 97 6 -7 14 -48 17 -90z m1665 -2 c0
-95 -5 -115 -21 -88 -19 30 -6 188 15 188 3 0 6 -45 6 -100z m-1621 -31 c-21
-24 -28 -18 -20 16 6 22 9 25 22 14 13 -10 12 -14 -2 -30z m1566 10 c0 -20
-15 -26 -25 -9 -9 15 3 43 15 35 5 -3 10 -15 10 -26z m-1514 -36 c20 -27 17
-34 -13 -27 -37 9 -38 11 -23 29 16 19 20 19 36 -2z m1483 3 c13 -16 9 -20
-31 -30 -31 -7 -33 -4 -16 24 15 24 31 25 47 6z m-1480 -63 c18 -3 36 -1 40 4
3 6 16 0 31 -13 l25 -24 -23 0 c-14 0 -22 6 -23 18 0 10 -3 12 -6 5 -3 -9 -29
-13 -80 -13 l-76 0 19 21 c12 13 25 18 39 14 11 -3 35 -9 54 -12z m1396 7 c-8
-14 44 -13 84 1 29 10 35 9 54 -10 l22 -22 -87 3 c-47 2 -84 0 -81 -4 2 -5 -8
-8 -24 -8 l-28 0 30 25 c33 27 39 30 30 15z"></path>
<path d="M1484 2367 c-3 -8 -4 -62 -2 -121 3 -103 3 -105 -21 -111 -13 -3 -26
-4 -29 -1 -2 3 -9 47 -14 98 -14 131 -16 140 -36 136 -15 -3 -16 -14 -13 -73
1 -39 7 -92 11 -120 4 -27 7 -50 6 -51 0 -1 -13 -4 -28 -8 -25 -6 -27 -3 -48
59 -13 40 -27 65 -36 65 -25 0 -26 -24 -4 -79 22 -56 21 -66 -9 -74 -15 -3
-25 9 -52 64 -23 48 -38 69 -51 69 -25 0 -23 -22 12 -90 17 -33 30 -62 30 -64
0 -3 -9 -10 -19 -15 -17 -9 -27 2 -87 90 -67 101 -87 120 -105 102 -5 -5 18
-49 62 -114 69 -101 76 -125 43 -136 -6 -2 -44 39 -85 91 -69 89 -109 118
-109 81 0 -8 33 -56 73 -105 39 -50 72 -94 72 -99 0 -4 -15 -24 -33 -45 l-32
-37 -52 35 c-39 26 -56 32 -65 24 -21 -17 -16 -24 37 -58 28 -18 50 -34 50
-37 0 -4 -20 -45 -25 -51 -2 -2 -46 18 -99 45 -71 35 -99 44 -107 36 -18 -18
-2 -32 92 -75 49 -23 89 -45 89 -50 0 -5 -4 -18 -10 -28 -9 -17 -15 -16 -100
17 -85 33 -120 37 -120 13 0 -12 60 -39 144 -66 51 -16 69 -35 48 -48 -5 -3
-34 2 -66 10 -31 8 -61 12 -66 9 -19 -12 -9 -35 18 -41 89 -20 102 -25 102
-43 0 -16 -8 -17 -81 -13 -83 5 -104 -3 -92 -35 4 -9 28 -13 89 -13 67 0 84
-3 84 -15 0 -11 -19 -15 -87 -17 -70 -2 -88 -6 -88 -18 0 -12 18 -16 88 -18
77 -2 87 -5 87 -21 0 -15 -10 -20 -47 -25 -68 -10 -83 -16 -83 -31 0 -24 17
-26 79 -12 55 13 60 13 64 -4 4 -15 -12 -24 -89 -51 -93 -33 -109 -44 -95 -67
6 -8 33 -2 101 24 51 19 94 34 95 33 1 -2 8 -13 14 -26 12 -22 8 -24 -83 -67
-88 -41 -113 -63 -87 -79 4 -3 50 15 101 40 98 47 95 47 122 -1 9 -16 7 -22
-17 -40 -69 -50 -78 -60 -63 -73 12 -9 24 -5 64 23 l49 36 33 -36 c17 -19 32
-39 32 -44 0 -5 -31 -47 -70 -93 -67 -80 -85 -118 -56 -118 11 0 99 97 152
168 9 12 14 12 32 1 12 -8 22 -16 22 -19 0 -3 -29 -45 -65 -95 -35 -49 -65
-98 -65 -108 0 -40 36 -8 99 85 37 53 68 97 71 97 3 0 13 -6 23 -13 17 -13 17
-17 -12 -75 -36 -71 -38 -81 -12 -81 14 0 28 19 51 65 29 60 33 64 53 54 12
-7 23 -12 24 -13 2 -1 -6 -26 -17 -54 -25 -65 -25 -82 -2 -82 13 0 24 17 39
63 21 62 27 66 69 53 7 -3 6 -37 -4 -111 -14 -112 -8 -141 21 -116 9 7 17 44
22 103 8 113 10 115 43 110 l27 -4 0 -106 c0 -100 1 -107 20 -107 19 0 20 8
23 106 3 104 3 107 27 111 28 6 30 -2 40 -117 4 -38 9 -78 11 -87 6 -19 29
-24 38 -9 4 7 -3 94 -17 205 -1 14 6 22 25 27 26 7 28 5 48 -57 17 -49 26 -64
41 -64 24 0 24 17 -1 81 -12 28 -19 53 -18 54 2 1 12 7 24 13 18 10 23 5 52
-54 23 -47 37 -64 52 -64 27 0 25 10 -11 81 -29 58 -29 62 -12 75 10 7 20 13
23 13 3 0 36 -45 73 -99 63 -93 97 -122 97 -84 0 9 -29 59 -65 111 -61 89 -64
97 -48 109 10 7 20 13 23 13 3 1 39 -40 80 -90 68 -81 97 -102 107 -74 2 6
-32 52 -76 102 l-78 92 37 41 38 41 45 -32 c43 -30 77 -34 77 -10 0 6 -22 25
-49 43 l-49 33 15 30 c9 17 17 31 18 33 1 1 44 -18 96 -42 89 -43 119 -46 106
-13 -3 7 -44 31 -92 53 -81 36 -86 40 -80 64 4 14 8 26 9 28 2 1 45 -13 95
-33 51 -19 97 -32 102 -29 27 16 -2 39 -86 69 -62 22 -91 38 -94 50 -3 19 -9
19 104 -1 31 -6 35 -4 35 14 0 23 -11 27 -82 38 -38 5 -48 10 -48 25 0 17 8
19 90 19 83 0 90 1 90 20 0 19 -7 20 -90 20 -72 0 -90 3 -90 15 0 11 19 15 88
17 79 3 87 5 87 23 0 18 -7 20 -85 21 -76 0 -85 2 -85 19 0 14 10 21 40 27 80
16 85 18 85 38 0 24 -8 24 -80 5 -42 -11 -56 -12 -62 -2 -10 17 -2 22 84 52
95 34 118 49 101 66 -10 10 -31 5 -105 -23 -51 -20 -96 -33 -99 -29 -4 3 -9
15 -13 26 -5 17 8 26 89 64 70 32 95 49 95 62 0 28 -17 24 -116 -25 l-89 -44
-17 21 c-10 12 -18 24 -18 27 0 3 23 20 50 38 50 32 65 62 32 62 -10 0 -37
-14 -61 -31 l-43 -32 -40 41 -41 40 40 49 c106 129 123 156 112 169 -15 19
-19 16 -104 -92 -42 -52 -79 -94 -84 -94 -5 0 -14 6 -20 14 -10 11 2 36 59
121 38 59 67 111 64 116 -14 24 -40 0 -102 -96 -37 -57 -70 -104 -73 -105 -3
0 -13 6 -23 13 -17 13 -17 17 13 75 35 70 39 92 13 92 -12 0 -27 -21 -49 -70
-29 -64 -34 -69 -55 -61 -28 10 -28 12 -4 79 12 37 15 57 8 64 -17 17 -30 1
-52 -61 -20 -53 -24 -58 -47 -53 -25 5 -26 5 -19 76 4 39 9 95 13 124 5 47 4
52 -14 52 -24 0 -28 -17 -39 -143 -4 -48 -10 -89 -14 -92 -3 -2 -16 -2 -28 2
-20 5 -22 12 -24 121 -3 102 -5 117 -21 120 -9 2 -20 -3 -23 -11z m212 -311
c186 -59 338 -213 396 -401 28 -90 30 -233 4 -320 -91 -307 -392 -491 -704
-432 -290 55 -492 296 -492 587 0 170 51 293 174 416 62 62 99 90 156 117 151
72 308 83 466 33z"></path>
<path d="M1362 2020 c-96 -25 -162 -62 -236 -130 -117 -108 -176 -242 -176
-397 0 -48 6 -110 14 -138 46 -176 189 -327 364 -387 54 -18 89 -23 177 -23
134 0 210 23 318 95 329 220 324 684 -9 907 -125 83 -307 113 -452 73z m263
-65 c239 -63 405 -303 367 -532 -47 -280 -335 -469 -607 -398 -164 43 -308
182 -350 339 -28 102 -18 232 23 319 99 212 344 330 567 272z"></path>
<path d="M1480 1876 c0 -13 6 -26 13 -29 22 -7 37 4 37 29 0 19 -5 24 -25 24
-20 0 -25 -5 -25 -24z"></path>
<path d="M1360 1865 c-17 -20 -5 -45 20 -45 11 0 23 7 26 15 6 15 -11 45 -26
45 -4 0 -13 -7 -20 -15z"></path>
<path d="M1610 1865 c-18 -21 -5 -47 22 -43 26 3 37 36 16 49 -18 12 -24 11
-38 -6z"></path>
<path d="M1233 1804 c-3 -8 2 -23 11 -32 15 -15 17 -15 32 0 21 21 11 48 -16
48 -11 0 -23 -7 -27 -16z"></path>
<path d="M1723 1804 c-3 -8 2 -23 11 -32 15 -15 17 -15 32 0 21 21 11 48 -16
48 -11 0 -23 -7 -27 -16z"></path>
<path d="M1144 1716 c-9 -24 4 -48 23 -44 12 2 18 12 18 28 0 29 -32 41 -41
16z"></path>
<path d="M1300 1643 l0 -83 28 0 c19 0 39 11 62 35 33 35 35 35 118 35 l84 0
-146 -155 -146 -156 0 -59 0 -60 205 0 205 0 0 78 0 79 -29 -5 c-16 -2 -40
-15 -52 -28 -20 -22 -31 -24 -106 -24 -46 0 -83 3 -83 8 1 4 61 70 135 147
l134 140 1 65 0 65 -205 0 -205 0 0 -82z m368 9 c4 -37 -1 -43 -142 -195 -114
-123 -123 -139 -95 -165 11 -11 37 -22 58 -26 44 -7 147 8 167 25 11 9 14 7
14 -15 0 -14 -3 -26 -7 -27 -41 -4 -300 -6 -310 -2 -18 7 -16 39 4 71 10 15
50 61 89 102 40 41 82 86 94 100 11 14 32 38 45 54 32 36 31 50 -2 76 -24 19
-38 21 -100 18 -63 -3 -76 -7 -102 -32 l-30 -29 -7 27 c-12 47 2 51 168 51
l153 -1 3 -32z"></path>
<path d="M1832 1721 c-20 -12 -10 -46 13 -46 14 0 20 7 20 24 0 27 -13 35 -33
22z"></path>
<path d="M1101 1596 c-17 -20 -2 -48 23 -44 24 3 34 37 14 49 -18 12 -24 11
-37 -5z"></path>
<path d="M1870 1595 c-17 -20 -5 -45 20 -45 11 0 23 7 26 15 6 15 -11 45 -26
45 -4 0 -13 -7 -20 -15z"></path>
<path d="M1100 1435 c-11 -13 -11 -19 3 -32 21 -21 49 -9 45 19 -4 28 -30 35
-48 13z"></path>
<path d="M1864 1435 c-8 -21 2 -45 19 -45 8 0 20 7 27 15 10 12 10 18 0 30 -7
8 -19 15 -27 15 -7 0 -16 -7 -19 -15z"></path>
<path d="M1134 1315 c-4 -9 -2 -21 4 -27 16 -16 47 -5 47 17 0 26 -42 34 -51
10z"></path>
<path d="M1827 1317 c-8 -21 8 -39 29 -35 27 5 25 42 -2 46 -12 2 -24 -3 -27
-11z"></path>
<path d="M1384 1119 c-8 -14 21 -43 35 -35 6 4 11 16 11 27 0 21 -34 27 -46 8z"></path>
<path d="M1584 1115 c-4 -9 -2 -21 4 -27 15 -15 44 -1 40 19 -4 23 -36 29 -44
8z"></path>
<path d="M2111 2042 c0 -6 -20 -30 -43 -52 -23 -21 -39 -42 -36 -46 4 -3 25
12 48 33 30 27 41 45 37 58 -2 11 -5 14 -6 7z"></path>
<path d="M896 2025 c11 -29 69 -88 83 -84 6 2 -11 27 -39 54 -29 29 -48 41
-44 30z"></path>
<path d="M931 1015 c-43 -39 -52 -69 -25 -79 14 -5 15 -4 4 9 -11 14 -7 22 30
55 24 22 41 42 38 46 -4 3 -25 -11 -47 -31z"></path>
<path d="M2067 1009 c23 -24 45 -40 48 -37 7 7 -41 54 -70 70 -11 5 -1 -9 22
-33z"></path>
<path d="M434 1326 c-11 -29 0 -51 26 -51 21 0 25 5 25 30 0 24 -5 31 -23 33
-13 2 -24 -3 -28 -12z"></path>
<path d="M2530 1325 c-16 -20 -9 -49 14 -53 27 -6 48 25 35 49 -12 23 -32 24
-49 4z"></path>
</g>
</svg><style>@media (prefers-color-scheme: light) { :root { filter: none; } }
</style></svg>